<svg id="Layer_1" data-name="Layer 1" xmlns="http://www.w3.org/2000/svg" viewBox="0 0 500 500"><defs><style>.cls-1{fill-rule:evenodd;}</style></defs><path class="cls-1" d="M259.05,480.71c-9.31-9.09-16.09-30.27-16.36-30.46,12.28-8.89,21.26-19.75,36.6-20.83,24.28-1.7,47.65,21.69,72.43,6.45,16.86-10.37,11.88-41.3,37.88-46.51,1.3-5.48,1.67-15-1.34-20.93a17.47,17.47,0,0,0,11.65-8.72c-1.21-10.41-2.83-21.15-1.26-29.37,11.52,0,15.93-5.62,20.89-10.83,2.22-21.48-13.18-39-12.36-61.83.39-10.75,6.26-20.81,7.86-32.52,2.58-18.91-4.35-37.65,4.8-50.1.33-.45,6.58.88,7.41,1L435,177c4.7.57,9.57,2.08,14.34,1.58-1.07-2.36-1.38-5.13-2.11-7.61a40.69,40.69,0,0,1-1.82-6.85c-.56-5,3.5-9.63,3.49-14.83,0-3.68-2.7-7-3.91-10.32-1.38-3.8-3.93-6.91-6.39-10.24C429.5,116.46,415,106.93,409,92.66c-3.07-7.37-5.74-14.8-11.9-20.21s-14.65-8.4-21.72-12.82A239.2,239.2,0,0,0,324.25,35a176.78,176.78,0,0,0-33.08-7.55c-4.31-.58-8.73-6-13.77-7-13.57-2.67-27.4-1.12-41.11-1.11-12.72,0-25.85-2.74-38.4.22-11.45,2.69-21.5,9.18-30.73,16.23s-20,12.45-28.87,20.09c-10.39,9-15.61,21.86-24.61,32-5.19,5.83-11.61,10.75-15.37,17.73-6.85,12.74-10.76,28.72-14.76,42.59-4.16,14.41-3.66,30.54-3,45.4a106.81,106.81,0,0,0,2.62,19.58,72.55,72.55,0,0,0,2.91,9.41c.63,1.64,4.07,6.7,3.83,8.22-3.56,22.15-9.58,48.1-7.25,74.62.6,6.84,4.34,15,3.54,21.73-1.68,14.15-18.9,25.43-35.56,34C95.55,392.62,79.82,493.09,259.05,480.71Z"/></svg>